<?xml version="1.0" encoding="utf-8"?>
<!-- Generator: $$$/GeneralStr/196=Adobe Illustrator 27.6.0, SVG Export Plug-In . SVG Version: 6.00 Build 0)  -->
<svg version="1.1" id="Layer_1" xmlns="http://www.w3.org/2000/svg" xmlns:xlink="http://www.w3.org/1999/xlink" x="0px" y="0px"
	 viewBox="0 0 1204.7 283.5" style="enable-background:new 0 0 1204.7 283.5;" xml:space="preserve">
<style type="text/css">
	.st0{fill:#FFFFFF;}
	.st1{font-family:'ArianaPro-Black';}
	.st2{font-size:190.3885px;}
	.st3{letter-spacing:51;}
</style>
<g>
	<path class="st0" d="M175.7,262c-35.3-38.5-76.1-69-123.5-89.2c-12.9-5.5-26.2-10.3-39.5-14.7c-5.1-1.7-6.4-4.4-5.6-9.2
		c70,19.9,129.7,57.5,179,113.8C182.2,265.8,179.5,266.1,175.7,262L175.7,262z M122.1,270.1c-25.3-27.4-50-55.4-79.5-78.1
		c-8.8-6.8-17.8-13.5-27.3-19.1c-5.3-3.1-7.6-7.3-7.2-13.3c50.4,28.6,88.8,72.1,128.3,115.2C129.8,276.8,126,274.4,122.1,270.1z
		 M82.5,263.8c-0.7,0.8-1.3,0-2-0.3c-4.2-2.2-8.1-4.3-11-8.6C55.4,233.9,38,216,21.8,197c-7.5-8.8-10.5-15.3-11.3-24.8
		c22.4,28,47.5,52.3,67.1,81.5c1.7,2.5,3.1,5.1,4.7,7.5C82.9,262.2,83.1,263,82.5,263.8L82.5,263.8z M207.1,250.2
		c-3.3,2.6-5,2.8-7.8-1c-24.8-32.8-52.5-62.1-89.8-79.3c-0.1-0.1-0.2-0.1-0.4-0.2c-5.3-2-10.4-4.3-15.7-6.5
		c-1.6-0.5-3.1-1.3-4.7-1.7c-0.6-0.2-1.1-0.3-1.6-0.7c-4.4-1.5-8.8-2.7-13.2-3.9c-0.4-0.1-0.9-0.2-1.4-0.3
		c-17.7-4.8-35.8-7.4-54-9.1c-3.9-0.4-9.3,2.4-11.3-1.5l2.2-13.4c-0.9-0.5-4-2.1-4.9-2.6c-0.6-0.1-1.2-0.2-1.8-0.3
		c-4.5,16.5-2.7,33,1.1,49.3c13.3,57.2,56.2,97,112.1,103.7c37,4.4,69.8-6.5,98.2-31.6c23.5-20.8,37.7-47.5,43.4-79.1
		c0.2-1.3,0.2-2.6,0.3-4C250.1,201.7,233.6,229.2,207.1,250.2L207.1,250.2z"/>
	<path class="st0" d="M246.5,158c-4.8,9.5-10.1,18.8-16.4,27.2c-10.4,13.9-21.5,27.2-34,39.3c-4.9,4.7-4.8,4.6-9.2-0.4
		c-5.8-6.5-11.8-12.9-17.9-19.1c-2.5-2.6-2.6-3.9,0.5-6c21.8-15,44-29.1,68.4-39c1.8-0.7,3.7-1.5,5.6-2
		C244.4,157.8,245.2,157.1,246.5,158L246.5,158z"/>
	<path class="st0" d="M242.2,149.2c-13.6,6-26.6,12.5-39.4,19.7c-13.6,7.7-26.5,16.4-39.3,25.3c-2.4,1.7-4.1,1.9-6.4-0.2
		c-6.8-6.4-14.1-12.2-21.9-17.2c-3.4-2.2-2.4-3.5,0.3-5.1c8.9-5.2,18.5-8.1,28.2-11c24.7-7.5,50.1-10.5,75.8-11.6
		C240.5,149,241.3,149.2,242.2,149.2L242.2,149.2z"/>
	<path class="st0" d="M253.1,162.3c0.5,9-1.7,17.1-4.3,25.2c-7.7,23.2-21.6,41.7-39.4,57.4c-2.1,1.9-3.5,2-5-0.5
		c-0.5-0.9-1.4-1.7-2.1-2.5c-6.4-7.2-6.2-7,0.4-13.7c17.4-17.4,33.3-36.3,45.7-58C250,167.5,251.6,164.9,253.1,162.3z"/>
	<path class="st0" d="M40,88.6c-1.8,0.1-23.7,29.8-23.1,30.8c-0.1,0.3-0.2,0.6-0.4,0.9c-1.3,0-2.2-0.5-3.1-1.1
		c-1.6-1.3-2.6-3-2.6-5.1c0-0.9,0.3-1.7,0.9-2.5c1.5-2.1,2.8-4.3,4-6.6c3.1-5.9,7.1-11.7,12.1-17c4.9-5.3,10.6-10.3,16.7-15.1
		c6.5-5,13.6-9.6,21.2-13.9c8.3-4.7,17.2-8.8,26.6-12.5c0.1,0,0.2-0.1,0.5-0.2c-0.2,0.3-0.4,0.6-0.6,0.8c-0.4,0.5-0.7,1-1.1,1.5
		c-0.5,0.5-1.1,1-1.6,1.4"/>
	<path class="st0" d="M15.5,67.4c-0.7,5.2-2.2,10.9-2.5,16c-0.3,4.8-0.4,9.5-0.4,14.3c0,3.2,0.2,6.3,0.3,9.4c0,0.1,0,0.3-0.1,0.4
		c-0.7,1.1-1.4,2.3-2.2,3.5c-1.1,1.6-1.3,3.2-1,4.7c0,0,0,0.1,0,0.2c-1.2-0.9-2.2-1.9-3.1-2.9c-1.1-1.4-2.2-2.8-3.1-4.4
		c-0.9-1.5-1.8-3-2.4-4.7c-0.5-1.6-0.7-3.3-0.7-5.1c0-3.5,0.5-7,1.3-10.6c1-4.4,2.4-8.8,4.1-13.2C8.3,68.2,17,60.3,21.3,53.8"/>
	<path class="st0" d="M89.1,32.2c-0.2,0.5-0.4,0.9-0.6,1.4c-1.6,3.1-3.7,6.1-6,9.2c-2.6,3.5-5.5,6.9-8.3,10.3
		c-0.1,0.1-0.2,0.2-0.4,0.3c-7.8,3.9-15.2,8.2-22,12.8c-3.6,2.4-6.9,5-10.3,7.5c-0.1,0.1-0.2,0.2-0.4,0.2c0.5-0.6,1-1.2,1.6-1.8
		c5-5.6,10.6-11,16.7-16.1c4.9-4.1,10.1-8.1,15.5-11.9c1.5-1.1,3.1-2.1,4.7-3.2c0.3-0.2,0.5-0.4,0.7-0.6c2.8-2.7,5.7-5.4,8.6-8.1
		C88.9,32.2,88.9,32.2,89.1,32.2L89.1,32.2L89.1,32.2z"/>
	<path class="st0" d="M28.1,58.3c-1.6,0.4-2.6,1.2-3.3,2.1c-0.7,1-0.9,1.9-0.3,2.7c-1.6,0.5-2.7,1.3-3.3,2.3c-0.7,1-0.8,2,0,2.8
		c-1.6,0.5-2.5,1.4-3.1,2.5c-0.6,1.1-0.5,2,0.4,2.8c-1.4,0.6-2.1,1.5-2.6,2.5c-0.5,1-0.4,1.9,0.4,2.6c-0.4,0.2-0.8,0.5-1.3,0.8
		c0.8-10.9,10.8-29,20-36.4"/>
	<path class="st0" d="M7,120.4c3,0.3,6,0.7,8.9,1.2c-1.7,2.9-3.4,5.8-5.2,8.8c-0.5-0.2-1-0.4-1.4-0.7c-1.7-0.9-3.1-2.1-4.5-3.3
		c-0.2-0.2-0.1-0.4,0-0.6c0.7-1.4,1.3-2.8,1.8-4.2C6.7,121.2,6.8,120.8,7,120.4L7,120.4z"/>
	<path class="st0" d="M49.1,52.4c0.9-0.2,1.9-0.3,2.7-0.1c1.4,0.3,2.8,0.7,4.2,1c1.1,0.3,1.8,0.8,1.9,1.6c0,0.1-0.1,0.3-0.2,0.5
		c-0.9,0.8-1.9,1.6-2.8,2.5c-0.1,0.1-0.4,0.2-0.6,0.2c-0.7,0.1-1.4,0.1-2.1-0.1c-1.4-0.4-2.8-0.7-4.2-1c-1.6-0.4-2.4-1.4-1.7-2.6
		c0.3-0.4,0.7-0.9,1.1-1.3C47.9,52.8,48.5,52.6,49.1,52.4L49.1,52.4z"/>
	<path class="st0" d="M41.7,61.9c-0.2-0.5-0.2-1,0.1-1.5c0.4-0.6,0.8-1.3,1.8-1.8c1.1-0.5,2.2-0.7,3.4-0.4c1.5,0.3,2.9,0.7,4.4,1
		c0.4,0.1,0.8,0.3,1.1,0.5c0.1,0,0.1,0.2,0,0.3c-1.3,1.3-2.7,2.5-4,3.8c-0.1,0.1-0.3,0.1-0.4,0.1c-0.3,0-0.6-0.1-0.9-0.2
		c-1.2-0.3-2.4-0.5-3.7-0.8C42.7,62.8,42.1,62.4,41.7,61.9L41.7,61.9z"/>
	<path class="st0" d="M58.8,41.7c0.9-0.2,1.7-0.2,2.5,0c1.3,0.4,2.7,0.7,4,1.1c1.6,0.5,2.1,1.6,1.2,2.6c-0.5,0.5-0.9,1-1.9,1.3
		c-1,0.3-1.9,0.4-2.8,0.2c-1.4-0.4-2.9-0.7-4.3-1.1c-1.5-0.4-2-1.5-1.1-2.5c0.4-0.5,0.8-1,1.7-1.3C58.3,41.9,58.6,41.8,58.8,41.7z"
		/>
	<path class="st0" d="M54.3,47.1c0.8-0.2,1.6-0.2,2.3,0c1.3,0.3,2.6,0.6,3.8,1c1.5,0.4,2,1.5,1.1,2.4c-0.4,0.4-0.7,0.9-1.4,1.2
		c-1,0.4-2,0.5-3.1,0.3c-1.3-0.3-2.6-0.6-3.9-1c-1.5-0.4-2-1.4-1.2-2.4c0.4-0.5,0.8-1,1.6-1.3C53.8,47.2,54.1,47.1,54.3,47.1
		L54.3,47.1z"/>
	<path class="st0" d="M42.8,69.7c-1.3-0.3-2.7-0.5-4-0.8c-1.5-0.4-2-1.5-1.2-2.7c0.2-0.3,0.5-0.7,0.8-1c0.9-0.9,2.6-1.4,4-1.1
		c1.5,0.3,3.1,0.7,4.6,1c0.1,0,0.1,0,0.2,0.1C45.7,66.7,44.2,68.2,42.8,69.7L42.8,69.7z"/>
	<path class="st0" d="M71.5,39c0.2,0.4,0.1,0.9-0.3,1.3c-0.2,0.2-0.4,0.4-0.5,0.6c-0.9,0.9-2.7,1.2-4.2,0.8
		c-1.4-0.4-2.7-0.7-4.1-1.1c-1.5-0.4-2-1.4-1.2-2.3c0.5-0.5,0.9-1.1,1.9-1.4c1-0.3,2-0.3,2.9-0.1c1.3,0.4,2.6,0.7,4,1.1
		C70.8,38.1,71.3,38.5,71.5,39L71.5,39z"/>
	<path class="st0" d="M41.8,70.8c-1.4,1.6-2.7,3.1-4,4.7c-1.1-0.2-2.2-0.4-3.2-0.6c-1.4-0.4-1.9-1.4-1.3-2.5
		c0.3-0.4,0.6-0.9,1.1-1.3c0.9-0.8,2.3-1.1,3.5-1c0.1,0,0.3,0,0.4,0.1C39.5,70.3,40.6,70.6,41.8,70.8L41.8,70.8z"/>
	<path class="st0" d="M53.1,35.7c0.7-0.2,1.4-0.2,2.1-0.1c1.3,0.3,2.7,0.6,4,1c0,0,0.1,0,0.1,0c0.8,0.3,0.8,0.4,0.4,0.9
		c-0.7,0.7-0.9,1.4-0.7,2.1c0,0.1-0.1,0.2-0.2,0.3c-0.8,0.3-1.7,0.5-2.5,0.3c-1.4-0.3-2.8-0.6-4.2-1c-1.2-0.3-1.6-1.1-1.1-1.9
		C51.2,36.6,51.8,36,53.1,35.7L53.1,35.7z"/>
	<path class="st0" d="M21,89.8c-0.8-0.1-1.7-0.3-2.5-0.4c-0.4-0.1-0.8-0.1-1.1-0.2c-1.1-0.2-1.6-1-1.1-1.9c0.3-0.6,0.6-1.1,1.3-1.5
		c0.7-0.4,1.3-0.5,2-0.5c1.1,0.1,2.2,0.3,3.3,0.5c0.5,0.1,0.8,0.2,0.9,0.6c0,0.3,0.2,0.5,0.4,0.8c0.1,0.2,0.1,0.2-0.2,0.3
		C22.7,88,21.7,88.8,21,89.8L21,89.8z"/>
	<path class="st0" d="M52,46.6c-1.3,0.9-2.2,1.8-2.3,2.9c0,0.1-0.2,0.1-0.3,0.2c-0.6,0.1-1.1,0.1-1.7,0c-1.2-0.3-2.5-0.5-3.7-0.8
		c-1.3-0.3-1.8-1.1-1.2-2c0.3-0.5,0.7-1,1.6-1.4c0.8-0.4,1.7-0.5,2.5-0.3c1.3,0.3,2.6,0.5,3.9,0.9C51.3,46.2,51.6,46.4,52,46.6
		L52,46.6z"/>
	<path class="st0" d="M40.3,63c-0.9,0.2-1.7,0.5-2.4,0.9c-0.1,0.1-0.3,0.2-0.4,0.2c-0.3,0.3-0.6,0.3-1,0.2c-1.1-0.2-2.2-0.4-3.4-0.6
		c-1.3-0.2-1.9-1.1-1.3-2c0.3-0.4,0.6-0.8,1-1.2c0.4-0.3,0.9-0.6,1.6-0.5c0.3,0,0.6,0,0.9,0c0.5-0.1,0.9,0,1.3,0.1
		c0.9,0.2,1.7,0.3,2.6,0.5c0.3,0.1,0.5,0.2,0.4,0.4c-0.2,0.6,0,1.2,0.4,1.7C40.2,62.8,40.2,62.9,40.3,63L40.3,63z"/>
	<path class="st0" d="M54,44.8c-0.8,0.2-1.6,0.3-2.3,0.1c-1.2-0.3-2.5-0.6-3.7-0.8c-1.3-0.3-1.8-1.1-1.3-2c0.4-0.5,0.7-1.1,1.6-1.4
		c0.9-0.4,1.8-0.5,2.7-0.3c1.3,0.3,2.6,0.6,3.8,0.9c0.1,0,0.2,0.1,0.3,0.1c0.7,0.2,0.6,0.3,0.2,0.7C54.2,43.2,53.9,43.7,54,44.8
		L54,44.8z"/>
	<path class="st0" d="M44.4,57.1c-1.8,0.5-3.1,1.2-3.8,2.4c-0.2,0-0.4-0.1-0.6-0.1c-1.1-0.2-2.1-0.4-3.2-0.6c-1.5-0.3-2-1.1-1.3-2.1
		c0.4-0.5,0.8-1.1,1.6-1.4c0.7-0.3,1.4-0.4,2.1-0.3c1.3,0.2,2.7,0.5,4,0.8C44,56,44.5,56.5,44.4,57.1L44.4,57.1z"/>
	<path class="st0" d="M36.1,65.7c-0.8,1.1-0.9,2.1-0.2,3.1c-0.8,0.5-1.7,0.7-2.6,0.6c-1.2-0.2-2.4-0.4-3.6-0.6
		c-1.2-0.2-1.7-1.1-1.2-1.9c0.1-0.2,0.3-0.5,0.5-0.7c0.6-0.8,1.9-1.3,3-1.2C33.4,65.1,34.7,65.4,36.1,65.7L36.1,65.7z"/>
	<path class="st0" d="M36.8,76.8c-0.9,1.6-2.6,3.1-4.3,4.6c-0.7-0.2-1.5-0.3-2.1-0.5c-1.1-0.4-1.5-1.4-0.9-2.3
		c0.3-0.6,0.6-1.1,1.3-1.6c0.9-0.6,1.9-0.9,3-0.8C34.8,76.2,35.8,76.5,36.8,76.8L36.8,76.8z"/>
	<path class="st0" d="M20.4,91c-0.3,1-0.2,1.9,0.5,2.6c-0.1,0-0.1,0.1-0.2,0.1c-0.7,0.3-1.3,0.6-1.8,1c-0.1,0.1-0.3,0.2-0.5,0.2
		c-0.2,0-0.4,0-0.6,0c-1-0.1-1.9-0.2-2.9-0.4c-0.1,0-0.1,0-0.2,0c-0.4-0.1-0.6-0.2-0.5-0.6c0.1-0.7,0.1-1.3,0.1-2
		c0-0.5,0.2-0.8,0.9-1.1c0.6-0.3,1.1-0.4,1.7-0.3c1.1,0.1,2.2,0.3,3.3,0.4C20.3,91,20.3,91,20.4,91L20.4,91z"/>
	<path class="st0" d="M24,84.6c-1.3-0.2-2.7-0.3-3.9-0.5c-0.7-0.1-1.1-0.6-1.1-1.2c0-0.8,0.4-1.6,1.5-2.3c0.7-0.4,1.4-0.6,2.1-0.5
		c1.1,0.1,2.3,0.3,3.4,0.5c0.6,0.1,1,0.4,1.2,0.8C25.5,82.2,24.6,83.3,24,84.6L24,84.6z"/>
	<path class="st0" d="M32.8,70.7c-1,1.2-1.8,2.4-1.3,3.6c-0.5,0.2-1,0.2-1.4,0.2c-1.2-0.2-2.5-0.4-3.7-0.6c-1.1-0.2-1.7-1.1-1.1-1.9
		c0.3-0.4,0.5-0.8,0.9-1.2c0.7-0.6,1.6-0.9,2.6-0.7c1.3,0.2,2.6,0.4,3.8,0.7C32.7,70.6,32.7,70.6,32.8,70.7L32.8,70.7z"/>
	<path class="st0" d="M48,51.5c-2,0.7-2.9,1.8-3.7,3.1c-0.2,0-0.4-0.1-0.5-0.1c-1.1-0.2-2.3-0.5-3.4-0.7c-1.5-0.3-2-1.2-1.2-2.2
		c0.4-0.5,0.7-1,1.5-1.3c0.8-0.3,1.6-0.4,2.4-0.3c1.2,0.2,2.4,0.5,3.7,0.8C47.3,51,47.7,51.2,48,51.5z"/>
	<path class="st0" d="M30,75.9c-1.6,1.1-2.3,2.3-2.6,3.6c-0.2,0-0.5,0-0.7,0c-1.1-0.2-2.2-0.3-3.3-0.5c-0.9-0.1-1.3-0.6-1.4-1.2
		c-0.1-0.8,0.8-2,2-2.4c0.6-0.3,1.3-0.3,1.9-0.2c1.1,0.2,2.2,0.3,3.3,0.5C29.4,75.6,29.6,75.8,30,75.9L30,75.9z"/>
	<path class="st0" d="M67.8,33.2c0.8-0.1,1.5-0.1,2.1,0.1c1.2,0.3,2.4,0.7,3.5,1c1.2,0.4,1.6,1.3,0.9,2c-0.4,0.4-0.7,0.7-1.4,1
		c-0.4,0.1-0.6,0.1-1,0c-1-0.4-2-0.7-3-1c-1-0.3-2-0.5-3-0.8c-0.1,0-0.2-0.1-0.2-0.2C65.4,34.6,66.6,33.4,67.8,33.2L67.8,33.2z"/>
	<path class="st0" d="M10.5,130.9c-1.1,0.6-1.1,1.8-1.1,1.8c-2.6-0.3-4.5-1.2-7.2-1.4c0.6-1.2,0.1-2.7,1.8-3.6"/>
	<path class="st0" d="M77.2,31.5c0.4,0.6-0.8,1.7-1.9,1.8c-0.2,0-0.4,0-0.6-0.1c-1.3-0.4-2.6-0.8-3.8-1.1c-0.2-0.1-0.4-0.1-0.6-0.1
		c-0.5,0-0.7-0.2-0.8-0.5c-0.2-0.8,1.2-1.8,2.6-1.8c0.4,0,0.8,0.1,1.1,0.1c1,0.3,2,0.6,3,0.9C76.7,30.9,77,31.2,77.2,31.5L77.2,31.5
		z"/>
	<path class="st0" d="M26.5,68.2c-1-0.1-2-0.2-3-0.4c-1-0.2-1.3-1-0.9-1.8c0.1-0.2,0.2-0.3,0.3-0.5c0.6-0.8,1.8-1.4,3-1.3
		c0.9,0.1,1.8,0.3,2.6,0.4C27.1,65.7,26.3,66.9,26.5,68.2L26.5,68.2z"/>
	<path class="st0" d="M26.8,87.1c-1.2-0.3-1.7-1.4-1.1-2.5c0.1-0.2,0.3-0.5,0.4-0.7c0.8-1.2,2.5-1.9,4.1-1.6
		c0.4,0.1,0.8,0.1,1.2,0.2C29.8,84,28.3,85.5,26.8,87.1z"/>
	<path class="st0" d="M25.6,69.5c-1.9,1.5-2.3,2.3-2.3,3.8c-0.9-0.2-1.9-0.3-2.8-0.5c-0.6-0.1-0.8-0.5-1-0.9c-0.2-0.6,0.7-2,1.7-2.4
		c0.5-0.2,1.1-0.4,1.6-0.4C23.7,69.2,24.7,69.4,25.6,69.5L25.6,69.5z"/>
	<path class="st0" d="M63.4,35.5c-0.6,0.2-1.3,0.4-2,0.6c-1.1-0.7-2.8-0.9-4.3-1.3c-0.1,0-0.3-0.1-0.4-0.1C56,34.5,56,34.5,56.4,34
		c0.3-0.4,0.7-0.8,1.4-1c0.7-0.2,1.4-0.3,2-0.1c1.2,0.3,2.4,0.6,3.6,0.9c0.4,0.1,0.6,0.2,0.4,0.6C63.6,34.7,63.5,35.1,63.4,35.5z"/>
	<path class="st0" d="M31.8,59.7c-1.8,1.6-2.2,2.3-1.9,3.8c-0.1,0-0.2,0-0.3,0c-0.8-0.1-1.5-0.2-2.2-0.4c-1.2-0.2-1.7-1.1-1.1-2
		c0.2-0.2,0.3-0.5,0.5-0.7c0.7-0.7,1.9-1.1,3-1C30.5,59.4,31.2,59.5,31.8,59.7z"/>
	<path class="st0" d="M14.1,95.8c1.2,0.1,2.3,0.2,3.5,0.4c-0.2,0.4-0.4,0.9-0.5,1.3c-0.2,0.7-0.1,1.3,0.1,1.8
		c0.1,0.2,0.1,0.3-0.3,0.5c-0.4,0.2-0.9,0.3-1.3,0.2c-0.4-0.1-0.8-0.1-1.3-0.2c-0.1,0-0.2-0.1-0.2-0.2
		C14.1,98.4,14.1,97.1,14.1,95.8L14.1,95.8z"/>
	<path class="st0" d="M76.4,34.4c1.1-0.3,1.8-0.7,2.3-1.3c0.1-0.1,0.3-0.1,0.4-0.1c1.1,0.3,2.2,0.7,3.2,1.1c0.8,0.3,1,1,0.5,1.5
		c-0.3,0.3-0.6,0.6-1.1,0.8c-0.7,0.2-1.3,0.2-1.9,0c-0.9-0.3-1.8-0.6-2.8-0.9c-0.1,0-0.2-0.1-0.2-0.1C76.6,35,76.5,34.7,76.4,34.4
		L76.4,34.4z"/>
	<path class="st0" d="M35.2,54.8c-1.5,1.2-2.3,2.5-1.6,3.9c-1-0.2-2-0.3-2.9-0.6c-0.9-0.2-1.2-0.9-0.9-1.5c0.3-0.6,0.6-1.1,1.4-1.6
		c0.6-0.3,1.3-0.5,2.1-0.5C33.9,54.6,34.5,54.7,35.2,54.8L35.2,54.8z"/>
	<path class="st0" d="M22.6,74.5c-1.7,1-2.4,2.3-2.5,3.7c-0.6-0.1-1.3-0.2-1.8-0.3c-0.9-0.2-1.2-1-0.8-1.8c0.3-0.6,0.6-1.1,1.4-1.5
		c0.5-0.3,1.1-0.4,1.7-0.4C21.3,74.3,22,74.4,22.6,74.5L22.6,74.5z"/>
	<path class="st0" d="M67.5,30.6c0,0.5-0.1,0.9-0.1,1.4c-0.7,0.3-1.5,0.5-2.3,0.8c-1-0.3-2-0.6-3.1-0.8c-0.1,0-0.2-0.1-0.3-0.2
		c-0.5-0.6,0.8-1.9,2.2-1.9c0.4,0,0.8,0,1.1,0.1C65.9,30.2,66.7,30.4,67.5,30.6z"/>
	<path class="st0" d="M38.6,50c-1.4,1.3-2.3,2.5-1.3,3.8c-0.1,0-0.2,0-0.3,0c-0.6-0.1-1.1-0.2-1.7-0.3c-1.3-0.2-1.8-1.1-1.2-2
		c0.3-0.4,0.6-0.9,1.2-1.2C36.3,49.8,37.4,49.7,38.6,50z"/>
	<path class="st0" d="M17.3,83.2c-1.1,0-2-0.3-2.1-1.1c-0.1-0.8,0.8-2.4,2.5-2.7c0.3,0,0.6-0.1,0.9-0.1c0.5,0,1,0.1,1.5,0.2
		c-0.9,0.5-1.6,1-2,1.7C17.6,81.9,17.2,82.5,17.3,83.2L17.3,83.2z"/>
	<path class="st0" d="M11.8,119.8c-0.1,0-0.2-0.1-0.3-0.1c-1.3-0.2-2.6-0.4-4-0.6c-0.2,0-0.3-0.1-0.3-0.3c0-0.9,0-1.8,0.1-2.8
		c0.1,0.1,0.3,0.2,0.4,0.4c0.8,0.7,1.7,1.3,2.7,1.7c0.1,0,0.1,0.1,0.2,0.1C11,118.7,11.4,119.2,11.8,119.8L11.8,119.8L11.8,119.8z"
		/>
	<path class="st0" d="M73.5,38.4c1.4-0.3,2.2-1,2.9-1.8c0.6,0.3,1.3,0.5,1.8,0.8c0.3,0.2,0.4,0.5,0.4,0.7c0.1,0.8-1.2,1.6-2.6,1.7
		c-0.9,0.1-1.5-0.3-2.3-0.5c0,0-0.1-0.1-0.1-0.1C73.6,38.9,73.5,38.7,73.5,38.4L73.5,38.4z"/>
	<path class="st0" d="M68.7,43c1.9-0.5,3.5-1.3,4.6-2.4c0.9,0.1,1.5,0.7,1.4,1.3c-0.2,0.7-0.8,1.4-2,1.7c-0.5,0.2-1.1,0.2-1.7,0.1
		C70.2,43.5,69.5,43.2,68.7,43L68.7,43z"/>
	<path class="st0" d="M78.4,30.1c-1.8-0.6-3.5-1.1-5.2-1.6c0.4-0.9,1.7-1.2,2.9-0.8c0.7,0.3,1.5,0.5,2.2,0.7
		c0.9,0.3,1.1,0.8,0.6,1.3C78.7,29.9,78.5,30,78.4,30.1L78.4,30.1z"/>
	<path class="st0" d="M41,49c-0.8,0.1-1.5-0.1-2-0.5c-0.8-0.5-0.6-1.4,0.4-2.3c0.6-0.6,1.8-1,2.8-0.9C40.9,46.5,40.1,47.7,41,49z"/>
	<path class="st0" d="M25.6,88.4c-1.2,1.4-2.3,2.8-3.5,4.2c-0.6-0.9-0.1-1.8,0.6-2.7C23.4,89,24.4,88.5,25.6,88.4z"/>
	<path class="st0" d="M80.7,30.3c0.7,0.2,1.4,0.4,2,0.7c0.6,0.2,0.8,0.7,0.5,1.1c-0.5,0.6-0.7,0.7-1.7,0.3c-0.6-0.2-1.3-0.4-2-0.6
		c-0.1,0-0.2-0.1-0.2-0.1c0-0.3-0.2-0.5,0.3-0.7C80.1,30.8,80.4,30.5,80.7,30.3L80.7,30.3z"/>
	<path class="st0" d="M70.3,45.5c-1.4,1-2.8,2.1-4.2,3.2c-0.5-0.2-0.9-0.4-1.4-0.6l0-0.1c2.3-0.5,3.4-1.6,4.2-2.9
		C69.4,45.2,69.8,45.4,70.3,45.5z"/>
	<path class="st0" d="M45.7,40.8c-1.2,1.1-1.6,2.2-0.8,3.3c-0.9,0.2-1,0.2-1.4-0.1c-0.5-0.4-0.7-0.8-0.5-1.3c0.3-0.7,0.8-1.3,2-1.7
		c0.1,0,0.2-0.1,0.2-0.1C45.4,40.8,45.5,40.8,45.7,40.8L45.7,40.8z"/>
	<path class="st0" d="M17.4,84.6c-2,0.9-2.7,2.2-3,3.7c0-0.2,0-0.5,0-0.7c0-0.9,0.1-1.9,0.2-2.8c0-0.2,0.1-0.3,0.4-0.3
		c0.3,0,0.5-0.1,0.8-0.1C16.3,84.4,16.8,84.5,17.4,84.6L17.4,84.6z"/>
	<path class="st0" d="M70.7,28.6c-0.7,0.3-1.4,0.6-2.2,0.9c-0.5-0.1-1.2-0.3-1.8-0.5c-0.1,0-0.1-0.1-0.1-0.2
		c0.3-0.6,1.1-1.1,2.4-0.7C69.6,28.3,70.2,28.5,70.7,28.6L70.7,28.6z"/>
	<path class="st0" d="M80.6,28c-1.2-0.7-2.9-1-4.3-1.5c0.3-0.2,0.9-0.4,1.5-0.2c0.8,0.2,1.7,0.5,2.5,0.8C80.9,27.3,81,27.6,80.6,28
		L80.6,28z"/>
	<path class="st0" d="M14.2,101.3c0.4,0,0.8,0.1,1.1,0.1c-0.3,0.5-0.7,1.1-1,1.6C14.2,102.5,14.2,101.9,14.2,101.3z"/>
	<path class="st0" d="M73,26.7c-0.4,0.3-0.9,0.5-1.3,0.8c-0.5-0.1-0.5-0.4-0.1-0.7C71.9,26.5,72.4,26.4,73,26.7L73,26.7z"/>
	<path class="st0" d="M48.4,37.9c0.1,0.5,0.3,0.9,0.4,1.4c-0.1,0-0.2,0.1-0.4,0.1C48,38.9,48.1,38.4,48.4,37.9z"/>
	<path class="st0" d="M64.8,49.6c-0.4,0.3-0.7,0.5-1,0.8c0.1-0.3,0.2-0.6,0.3-1C64.3,49.5,64.6,49.6,64.8,49.6L64.8,49.6z"/>
	<path class="st0" d="M18.8,97.1c0.2-0.5,0.4-1.1,1-1.5C19.5,96.1,19.2,96.6,18.8,97.1z"/>
	<path class="st0" d="M14.8,89.7c-0.1,0.1-0.3,0.1-0.5,0.2c0-0.1,0-0.2,0-0.4C14.5,89.6,14.7,89.7,14.8,89.7z"/>
	<path class="st0" d="M177.8,110.5c-5.7-16.6-16.2-25.4-33.7-22.9c3.5-7.1,9.4-10.1,15.8-8.2c7.2,2.2,13.3,6.1,18.1,12.2
		C183.1,98.1,183.1,102.9,177.8,110.5z M171.7,127.8c-0.5,0.9-1.2,1.5-2.2,1.9c-0.6,0.2-1.3,0.3-2,0.2c-0.6-0.1-1.2-0.2-1.8-0.4
		c-0.7-0.3-1.4-0.6-2.1-1.1c-0.7-0.5-1.3-1.1-1.8-1.8c-0.7-0.9-1.3-2-1.7-3.1c-0.4-1.1-0.7-2.1-0.9-3.3c-0.2-0.9-0.4-1.9-0.7-2.8
		c-0.3-1.2-0.7-2.4-1.2-3.6c-0.4-0.8-0.8-1.7-1.2-2.5c-0.4-0.8-0.9-1.6-1.4-2.3c-0.3-0.4-0.5-0.8-0.8-1.2c-0.4-0.5-0.8-1-1.2-1.5
		c-0.2-0.2-0.3-0.4-0.5-0.7c-0.2,0.2-0.3,0.4-0.4,0.7c-0.5,0.7-1.2,1.3-1.8,1.9c-0.5,0.5-1.1,0.9-1.5,1.5c-0.7,0.7-1.2,1.6-1.6,2.5
		c-0.2,0.4-0.3,0.8-0.3,1.2c0,0.3,0.1,0.5,0.1,0.8c0.1,0.5,0,1-0.3,1.5c-0.1,0.2-0.3,0.2-0.4,0.1c-0.1,0-0.1-0.1-0.2-0.1
		c0.1,0.3,0.1,0.6,0.1,0.9c0.2,1.2,0.4,2.3,0.5,3.5c0.1,0.6,0.1,1.2,0.2,1.8c0.1,0.5,0,0.6-0.5,0.8c-0.1,0-0.2,0.1-0.2,0.3
		c0,0.7-0.1,1.3-0.1,2c0,0.4-0.1,0.7-0.1,1.1c0,0.3-0.3,0.4-0.5,0.3c0,0-0.1,0-0.1,0c-0.2-0.1-0.3-0.2-0.3-0.4c0-0.1,0-0.2,0-0.2
		l-0.3,0.1v0c0-0.1,0.1-0.1,0.1-0.2c0-0.1,0.1-0.1,0.1-0.2c0.1-0.7,0.1-1.5,0.2-2.2c0-0.3,0-0.6,0-1c0,0,0-0.1,0-0.1
		c0.1-0.4,0-0.7-0.1-1.1c-0.1-1.3-0.1-2.7-0.2-4c0-0.7-0.1-1.4-0.1-2.1c0-0.3-0.1-0.3-0.3-0.3c-0.5,0-1.1,0-1.7,0
		c-0.8,0.1-1.6,0.2-2.3,0.3c0,0,0,0-0.1,0c0.1,0.2,0.2,0.4,0.3,0.7c0.3,0.5,0.5,1.1,0.8,1.6c0.3,0.5,0.6,1,0.8,1.5
		c0.2,0.4,0.5,0.9,0.7,1.4c0.2,0.4,0.2,0.8,0.3,1.1c0.1,0.3-0.1,0.6-0.4,0.8c-0.1,0-0.1,0.1-0.1,0.2c0,0.7-0.1,1.4-0.4,2
		c-0.3,0.6-0.6,1.3-0.9,1.9c-0.3,0.6-0.6,1.1-0.9,1.7c-0.1,0.1-0.2,0.2-0.3,0.1c-0.3-0.1-0.6-0.1-0.9-0.2c0.1-0.1,0.1-0.2,0.2-0.3
		c0.4-0.7,0.8-1.5,1.2-2.2c0.3-0.6,0.6-1.3,0.9-2c0.1-0.4,0.2-0.8,0.1-1.3c0,0,0-0.1,0-0.2c0.1-0.3-0.1-0.5-0.2-0.8
		c-0.2-0.6-0.4-1.1-0.7-1.7c-0.4-0.8-0.8-1.7-1.2-2.5c-0.2-0.5-0.5-1-0.7-1.5c-0.2-0.5-0.4-0.9-0.4-1.4c0-0.4,0.3-0.9,0.8-0.8
		c0.9,0.1,1.7-0.1,2.6-0.1c0.4,0,0.9,0,1.3,0.1c0.2,0,0.5,0,0.8,0c-0.2-0.1-0.3-0.2-0.5-0.3c-0.1-0.1-0.2-0.2-0.3-0.3
		c-0.3-0.5-0.3-1-0.4-1.6c-0.1-1.2-0.1-2.4,0-3.6c0-0.6,0.1-1.3,0.2-2c0-0.3,0.1-0.6,0.1-0.9c0.1-0.4,0.2-0.8,0.3-1.2
		c0.2-0.9,0.6-1.8,1.1-2.5c0.6-0.8,1.3-1.3,2.3-1.4c0.5-0.1,1,0,1.5,0.2c1.1,0.4,1.9,1.1,2.7,1.9c0.5,0.5,1,1.1,1.4,1.8
		c0.3,0.4,0.4,0.9,0.4,1.5c0,0.1,0,0.1,0.1,0.2c0.6,0.5,1.3,1,1.9,1.5c0.8,0.6,1.6,1.2,2.4,1.8c0.7,0.5,1.3,1,2,1.5
		c0.9,0.7,1.8,1.3,2.6,2c0.6,0.5,1.2,0.9,1.8,1.4c0.8,0.6,1.6,1.3,2.4,1.9c0.9,0.8,1.8,1.6,2.6,2.5c0.5,0.6,0.9,1.1,1.4,1.7
		c0.6,0.9,1.2,1.8,1.6,2.8c0.4,0.8,0.6,1.6,0.8,2.5C172.3,125.5,172.2,126.7,171.7,127.8L171.7,127.8z M157.4,119.2
		c-0.1,0.6-0.2,1.2-0.3,1.8c-0.2,0.9-0.5,1.8-0.9,2.6c-0.3,0.5-0.7,1-1.1,1.4c-0.5,0.5-1,0.9-1.6,1.4c0,0,0,0.2,0,0.2
		c0.1,0.7,0.3,1.4,0.4,2.1c0.2,1,0.4,2,0.6,3.1c0.1,0.6,0.3,1.3,0.4,1.9c0.1,0.4,0,0.6-0.3,0.8c-0.1,0-0.2,0.1-0.3,0
		c-0.2-0.1-0.4-0.2-0.4-0.4c-0.1-0.3-0.2-0.6-0.2-0.9c-0.1-0.5-0.2-1-0.3-1.5c-0.2-0.9-0.4-1.8-0.5-2.7c-0.1-0.5-0.2-1.1-0.3-1.6
		c-0.4,0.3-0.6,0.7-0.7,1.1c-0.1,0.4-0.1,0.4-0.5,0.4c0,0,0,0-0.1,0c0,0.2,0,0.3,0.1,0.5c0.1,0.2,0,0.4-0.1,0.5c0,0,0,0.1-0.1,0.1
		c-0.3,0-0.4-0.3-0.7-0.5c-0.4-0.4-0.8-0.8-1.2-1.3c-0.6-0.9-1-2-1.2-3.1c-0.1-0.5-0.2-1.1-0.2-1.6c-0.1-0.7-0.1-1.4-0.1-2.1
		c-0.1-1.2-0.1-2.5,0.1-3.7c0.1-0.9,0.2-1.7,0.4-2.6c0.2-1.1,0.6-2.2,1.2-3.1c0.4-0.7,0.9-1.2,1.4-1.7c0.4-0.3,0.8-0.6,1.2-0.7
		c0.8-0.2,1.5-0.2,2,0.6c0.2,0.3,0.4,0.6,0.5,0.9c0.2,0.4,0.4,0.9,0.7,1.3c0.4,0.8,0.8,1.7,1.2,2.5c0.3,0.7,0.6,1.5,0.8,2.3
		C157.4,117.8,157.5,118.5,157.4,119.2L157.4,119.2z M136.7,106.7c-0.2-0.8-0.4-1.6-0.4-2.5c0-1.2,0.2-2.3,0.5-3.4
		c0.3-0.9,0.7-1.8,1.3-2.6c0.3-0.4,0.7-0.7,1-1c0.5-0.4,1.1-0.7,1.7-0.7c1-0.1,1.9,0,2.5,0.9c0.3,0.4,0.4,0.8,0.5,1.3
		c0,0.6-0.1,1.1-0.3,1.7c-0.3,0.7-0.7,1.5-0.9,2.3c-0.2,0.5-0.2,1.1-0.3,1.6c0,0.2-0.1,0.5-0.1,0.7l0.1,0c-0.1,0.5-0.3,1-0.5,1.4
		c-0.4,0.9-0.9,1.7-1.6,2.4c-0.3,0.2-0.6,0.4-0.9,0.5c-0.6,0.2-1.1,0.1-1.5-0.4C137.3,108.3,137,107.6,136.7,106.7L136.7,106.7z
		 M135.8,99.9c-0.5-0.2-0.5-0.6-0.3-1c0.2-0.3,0.4-0.6,0.6-0.9c0.1-0.1,0.3-0.3,0.4-0.4c0.3-0.3,0.8-0.2,0.9,0.2
		c0.1,0.3,0,0.6,0,0.8c-0.2,0.6-0.3,1-0.7,1.3C136.4,100.1,136.1,100.1,135.8,99.9L135.8,99.9z M135.5,100.8
		c-0.1,0.4-0.3,0.6-0.8,0.7c-0.5,0.1-0.6-0.2-0.5-0.6c0.1-0.3,0.3-0.6,0.5-0.9c0.1-0.2,0.4-0.2,0.6-0.1c0.2,0.1,0.3,0.3,0.3,0.5
		C135.5,100.6,135.5,100.7,135.5,100.8L135.5,100.8z M134.5,103.2c-0.1,0.5-0.4,0.9-0.8,1.1c-0.7,0.3-1.4,0.5-2.1,0.6
		c-0.1,0-0.2,0-0.3,0c-0.4-0.1-0.5-0.4-0.4-0.7c0.2-0.3,0.4-0.6,0.6-0.9c0.3-0.4,0.7-0.8,1-1.1c0.3-0.3,0.6-0.4,0.9-0.6
		c0.4-0.1,0.8,0.2,1,0.5C134.5,102.4,134.5,102.8,134.5,103.2L134.5,103.2z M269.7,142.9c-15.8-13.7-31.7-27.5-47.5-41.2
		c-0.9-0.8-1.8-1.5-2.6-0.2c-0.8,1.2,0.5,1.6,1.1,2.1c4.5,4.1,8.7,8.6,13.5,12.1c4.1,3,4.3,6,2.1,10.2c-1.3,2.7-2.1,3.2-4.5,1.2
		c-11.4-9.4-22.9-18.5-34.3-27.9c-0.9-0.8-3-1.5-1.9-3.1c1-1.5,2.7,0.2,3.5,0.9c7.4,5.8,14.1,5.8,19.9-2.4c1.6-2.3,3.1-1.5,5,0
		c4.1,3.3,8.3,6.5,12.5,9.6c1,0.7,2.1,2.8,3.4,1c1.2-1.7-1-2.2-1.9-3c-12.4-10.6-24.8-21.1-37.3-31.6c-1-0.8-2-2.4-3.3-0.5
		c-1.1,1.6,0.3,2.2,1.1,3c4.4,3.9,8.8,7.9,13.3,11.6c2.1,1.7,2.3,3.2,1.3,5.7c-2.8,6.7-2.6,6.7-9.1,3.8c-1.4-0.6-2.8-1.3-4.2-2
		c-1.2-0.5-2.8-1.7-4.8-3.4l-5.8-4.7c-7.1-5.5-14-11.3-21.4-16.4c-6.1-4.2-10.1-10-14-16.1c-1.1-1.7-2.3-3.3,0.1-4.7
		c2.2-1.3,3.2-5.6,7.1-2.7c5.2,3.8,10.7,7.4,16.1,10.9c1,0.7,2.3,2.5,3.3,0.4c0.7-1.4-1.2-1.9-2.1-2.5c-13.4-10-26.9-19.9-40.4-29.7
		c-0.7-0.5-1.4-1.8-2.8-0.7c4,3.6,7.8,7.1,11.8,10.6c5.1,4.6,5.4,4.7,2.1,10.9c-2.2,4.1-2.2,7.4,0.4,11.2c1.3,1.9,3.3,3.9,2.4,7.1
		c-11.2-9.3-22.2-18.5-33.5-27.5c-3.6-2.8-0.6-4.4,0.3-6.6c1.3-3,2.9-1.7,4.6-0.4c6.6,4.9,13.2,9.7,19.7,14.7c1.1,0.8,2,1.4,3-0.2
		c0.9-1.5-0.3-2-1.1-2.6C128.3,27,111.3,14.2,94.3,1.5c-0.9-0.6-2-2.4-3-1.1C90,2.2,92.1,2.9,93,3.7c5.8,4.6,11.8,9,17.6,13.7
		c1.3,1,4.1,1.8,2.8,4.1c-1.3,2.3-0.8,6.5-5,6.3c-1.7-0.1-2.3,1.5-2.9,2.7c-0.8,1.7,0.9,2,1.7,2.7c8.7,7.7,17.6,15.3,26.3,23
		c6.7,5.9,13.5,11.8,20.5,18c-1.2,0.6-1.8,1.1-2.5,1.3c-6,2.3-10.8,5.8-12.2,12.9c-0.3,1.8-1.8,2-2.9,2.8
		c-10.7,7.2-15.2,19.8-11.6,32.4c3.4,11.9,14,19.3,27.1,19.1c11.3-0.2,21.6-8.6,24.5-20.7c0.8-3.5,1.2-6.2,5.1-7.6
		c2.7-1,3.9-4.3,4.4-7.4c0.5-2.6,0.8-5.2,1.3-8.3c7.5,5.8,14.5,11.2,21.6,16.7c9.2,7.1,18.4,14.2,27.6,21.3c1,0.8,1.9,2.8,3.7,0.7
		c1.9-2.4-0.4-2.9-1.3-4c-0.2-0.3-0.4-0.7-0.8-1.4c2.2-0.2,3.1-1.8,4-3.1c2-3.2,3.7-3,6.3-0.5c6.2,5.9,12.7,11.5,19.1,17.1
		c0.8,0.7,1.5,2.4,2.8,1.2C271.6,145.3,270.9,144,269.7,142.9L269.7,142.9z"/>
	<path class="st0" d="M141.7,103.9c0.2-0.3,0.4-0.7,0.4-1.1c0.1-0.7-0.1-1.4-0.5-2c-0.4-0.7-0.9-1.3-1.5-1.8
		c-0.1-0.1-0.3-0.2-0.4-0.3c-0.3,0-0.5,0-0.8,0.2c-0.6,0.4-1,1-1.3,1.5c-0.5,0.7-0.7,1.6-0.7,2.5c0,0.7,0,1.4,0.3,2
		c0.2,0.5,0.5,1,1.2,1.1c0.6,0.1,1.2-0.1,1.7-0.4C140.7,105.2,141.2,104.5,141.7,103.9L141.7,103.9z"/>
	<path class="st0" d="M80.7,165.8c0.4-0.4,0.7-0.5,1.2-0.5c0.3,0,0.6,0,0.8,0c0.4,0,0.7,0,0.8-0.4c0.6,0.1,1.2,0.2,1.8,0.3
		c0.9,0.2,1.9,0.2,2.8,0.1c0.6-0.1,1.1-0.2,1.7-0.4c0.7-0.2,1.5-0.5,2.2-0.7c0.4-0.1,0.3-0.2,0.1-0.6c-0.4-0.5-0.9-0.6-1.5-0.5
		c-0.9,0-1.8,0-2.7-0.2c-0.8-0.2-1.6-0.6-2.2-1.1c0.3-0.7-0.3-1.1-0.7-1.6c-0.5-0.4-0.7-0.9-0.6-1.5c0.2-1,0.4-2.1,0.5-3.1
		c0.1-0.9,0.2-1.9,0.4-2.8c0.2-1,0.2-2,0.2-3.1c0-0.2-0.1-0.5-0.2-0.7c-0.1-0.4-0.1-0.5,0.3-0.7c0.1-0.1,0.2-0.1,0.4-0.2
		c1-0.4,1.4-1.1,1.5-2c0-0.2,0-0.4,0-0.6c0-0.3,0-0.6,0.2-0.9c0.3-0.8,0.5-1.7,0.6-2.5c0.3-1.3,0.6-2.7,0.9-4
		c0.1-0.6,0.2-1.2,0.3-1.9c0.1-0.6,0.2-1.3,0.3-1.9c0-0.2,0.1-0.3,0.1-0.5c0.4-0.9,0.6-1.9,0.9-2.9c0.2-0.7,0-1.3-0.4-1.9
		c-0.1-0.2-0.3-0.4-0.4-0.7c0.5,0,0.6-0.3,0.6-0.7c0-0.3,0-0.6,0-1c0-0.4-0.1-0.4-0.6-0.4c-0.1,0-0.1,0-0.2,0c0-0.1,0-0.1,0-0.1
		c0.6-0.6,0.5-1.3,0.4-2.1c-0.1-0.7-0.3-1.5-0.5-2.2c-0.1-0.4-0.1-0.9-0.2-1.3c0.6-0.5,1.3-0.5,2-0.2c0.3,0.1,0.6,0.2,0.9,0.4
		l0.2,1.1c0.4,0,0.9,0,1.3-0.1c0.2,0,0.4,0,0.5-0.1c0.3,0,0.5,0,0.7,0.2c0,0.1,0.1,0.1,0.2,0.1c0.2,0.1,0.4,0.1,0.5-0.2
		c0-0.1,0-0.2,0-0.3c0.4-0.2,0.7-0.2,1,0.1c0,0,0.1,0.1,0.1,0.1c0.3,0.2,0.4,0.1,0.5-0.1c0-0.1,0-0.2,0-0.3c0.3-0.1,0.5-0.1,0.6,0.1
		c0.1,0.1,0.2,0.2,0.3,0.3c0.2,0.2,0.4,0.1,0.5-0.2c0-0.1,0-0.2,0-0.4c0.5-0.1,1-0.1,1.5-0.2c0.9,0,1.2-0.6,1.6-1.1
		c0.1-0.1,0.1-0.3,0-0.4c-0.1-0.7-0.2-1.4-0.3-2c-0.1-0.6-0.2-1.2-0.2-1.9c0-0.3-0.1-0.7-0.2-1c-1.8,0.1-3.5,0.3-5.2,0.5
		c0,0,0,0-0.1,0c0-0.1-0.1-0.1-0.1-0.3c-0.4-0.1-0.9-0.2-1.4-0.1c-0.3,0.1-0.5,0.2-0.7,0.4c-0.2,0.3-0.5,0.4-0.9,0.4
		c-0.4,0-0.9,0.1-1.3,0.2l-0.1,0.7c-0.5,0.3-1.1,0.4-1.6,0.6c-0.1,0-0.2,0-0.3-0.1c-0.2-0.1-0.4-0.2-0.6-0.4c0-0.4-0.1-0.9-0.1-1.3
		c0-0.7-0.3-1.4-0.4-2.1c-0.2-0.6-0.2-1.2-0.2-1.9c0-0.9-0.1-1.9-0.5-2.8c-0.1-0.3-0.3-0.7-0.4-1c-0.1-0.3-0.1-0.6,0.1-0.8
		c0.1-0.1,0.1-0.1,0.2-0.3c-0.1-0.1-0.3-0.1-0.4-0.2c-0.4-0.1-0.8-0.3-1.1-0.6c-0.3-0.3-0.6-0.6-1-0.8c0.2-0.3,0.3-0.6,0.5-0.9
		c0.2-0.3,0.4-0.5,0.8-0.5c0.4,0,0.8,0,1.2-0.1c0.6-0.1,0.6-0.2,0.7-0.7c0-0.1,0-0.2,0.1-0.3l0.1-0.3c0.1-0.1,0.2-0.1,0.3-0.2
		c0.1-0.1,0.2-0.2,0.2-0.3c0-0.1,0-0.2,0.1-0.3c0.3-0.2,0.3-0.4,0.2-0.7c0,0,0-0.1,0-0.2c0.1-0.1,0.3-0.1,0.4-0.2
		c0.4-0.2,0.5-0.4,0.3-0.8c-0.1-0.3-0.3-0.5-0.5-0.8c-0.1-0.1-0.1-0.2-0.1-0.3c0.6,0.1,1.2,0.2,1.7,0.2c1.1,0.1,2-0.4,2.4-1.2
		c-0.1-0.3-0.5-0.4-0.7-0.5c-0.8-0.4-1.5-0.8-2.3-1.2c-0.1,0-0.2-0.1-0.2-0.1c-0.7-0.3-1.2-0.8-1.3-1.5c-0.1-0.3-0.3-0.7-0.4-1
		c-0.2-0.5-0.6-0.9-1.2-1.1c-0.6-0.2-1.3-0.4-2-0.6c-0.4-0.1-1.3-0.1-1.7,0c-0.1,0-0.2,0.1-0.3,0.1c-1,0.1-1.8,0.6-2.5,1.2
		c0,0,0,0,0,0c-0.8,0.6-1.1,1.4-1,2.3c0,0.5-0.1,1,0.1,1.5c0,0,0,0.1,0,0.1c-0.2,0.8,0,1.6,0.3,2.3c0.2,0.5,0.3,0.9,0.3,1.4
		c0,0.1,0,0.1,0,0.2c0.4,0.5,0.1,0.9,0,1.4c-0.1,0-0.2,0-0.4,0c-0.3,0-0.4,0.1-0.5,0.4c-0.1,0.3-0.3,0.5-0.6,0.7
		c-0.1,0.1-0.3,0.2-0.3,0.4c0,0.1-0.2,0.2-0.3,0.3c-0.5,0.3-1,0.7-1.5,1c-0.9,0.7-1.4,1.6-1.8,2.5c-0.4,0.9-0.5,1.9-0.2,2.8
		c0.1,0.4,0.1,0.8,0,1.3c-0.2,0.8-0.3,1.5-0.5,2.3c0,0.1,0,0.3,0.1,0.4c0.1,0.2,0.1,0.4,0.1,0.5c0,1.3-0.1,2.5-0.1,3.8
		c0,0.3,0.1,0.7,0.3,1c0.3,0.6,0.8,1,1.6,1c0.9,0.1,1.9,0.1,2.8,0.2c0.1,0,0.1,0,0.2,0.1c-0.1,0.3-0.1,0.7-0.2,1
		c-0.1,0.2-0.1,0.5-0.2,0.8c-0.1,0.4,0,0.7,0.2,1l-0.2,0.9c-0.5,0.1-0.6,0.4-0.6,0.9c0,0.1,0,0.2,0,0.2c0,0.4-0.1,0.9-0.6,1.1
		c-0.5,0.3-0.7,0.8-0.7,1.4c0,0.5-0.1,1-0.2,1.5c-0.1,0.3-0.1,0.7,0,1c0,0.5,0.1,1.1,0.2,1.6c0,0.2,0.1,0.3,0.2,0.5
		c0.3,0.5,0.5,1,0.6,1.5c0.1,0.5,0.2,0.9,0.3,1.4c0.1,0.4,0.1,0.8-0.3,1c0.3,0.7,0.3,0.7,0.1,1.7c-0.2,1.3-0.2,2.5,0,3.8
		c0.1,0.7,0,1.4-0.4,2c-0.2,0.4-0.4,0.8-0.6,1.2c-0.4,0.8-0.6,1.6-0.8,2.4c-0.2,1-0.4,1.9-0.6,2.9c-0.1,0.7-0.2,1.3-0.3,2
		c-0.1,0.9-0.2,1.8-0.3,2.7c-0.1,0.5-0.1,1.1-0.1,1.6c0,1,0.1,2.1,0,3.1c0,0.7-0.2,1.4-0.3,2.1c-0.1,0.5-0.1,1.1-0.1,1.6
		c0,0.3,0,0.6,0,0.9c0,0.2,0,0.4-0.2,0.5c-0.1,0.1-0.1,0.2-0.1,0.3c0,0.3,0,0.5,0,0.8c0,0.2,0,0.4,0.3,0.6c0.1,0,0.1,0.1,0.1,0.2
		c0,0.3,0.2,0.7,0.1,1c0,0,0,0.1,0,0.1c-0.1,0.6,0,0.7,0.7,0.9c0.3,0.1,0.6,0.1,0.9,0.2c0.3,0.1,0.6,0.1,1,0c0.2,0,0.4,0,0.6,0.1
		c1.5,0.5,3,0.6,4.5,0.4c1.1-0.1,2.1-0.3,3.2-0.4c0.6-0.1,1.2-0.3,1.7-0.5c0.5-0.2,0.5-0.7,0.1-0.9c-0.1-0.1-0.2-0.2-0.3-0.3
		c-0.4-0.6-1-0.8-1.7-0.8c-1,0-2-0.1-2.9-0.4C81.5,166.1,81.1,165.9,80.7,165.8L80.7,165.8z"/>
	<text transform="matrix(0.9998 0 0 1 317.029 136.2274)" class="st0 st1 st2 st3">DRONE</text>
	<text transform="matrix(0.9998 0 0 1 317.0602 281.8397)" class="st0 st1 st2">BIOTECH</text>
</g>
</svg>
